<?xml version="1.0" encoding="iso-8859-1"?>
<!-- Generator: Adobe Illustrator 16.0.0, SVG Export Plug-In . SVG Version: 6.00 Build 0)  -->
<!DOCTYPE svg PUBLIC "-//W3C//DTD SVG 1.1//EN" "http://www.w3.org/Graphics/SVG/1.1/DTD/svg11.dtd">
<svg version="1.1" id="Capa_1" xmlns="http://www.w3.org/2000/svg" xmlns:xlink="http://www.w3.org/1999/xlink" x="0px" y="0px"
	 width="63.253px" height="63.253px" viewBox="0 0 63.253 63.253" style="enable-background:new 0 0 63.253 63.253;"
	 xml:space="preserve">
<g>
	<g>
		<path d="M11.634,10.337H0v5.078h11.634V10.337z M10.592,14.374H1.042v-2.995h9.551V14.374z"/>
		<path d="M11.634,4.087H0v5.078h11.634V4.087z M10.592,8.124H1.042V5.129h9.551V8.124z"/>
		<path d="M11.634,16.587H0v5.078h11.634V16.587z M10.592,20.624H1.042v-2.995h9.551V20.624z"/>
		<rect y="22.837" width="11.634" height="5.078"/>
		<rect y="29.087" width="11.634" height="5.079"/>
		<rect y="35.338" width="11.634" height="5.078"/>
		<rect y="41.588" width="11.634" height="5.078"/>
		<rect y="47.838" width="11.634" height="5.078"/>
		<rect y="54.088" width="11.634" height="5.078"/>
		<path d="M24.558,10.337H12.923v5.078h11.634V10.337z M23.516,14.374h-9.551v-2.995h9.551V14.374z"/>
		<path d="M24.558,4.087H12.923v5.078h11.634V4.087z M23.516,8.124h-9.551V5.129h9.551V8.124z"/>
		<path d="M24.558,16.587H12.923v5.078h11.634V16.587z M23.516,20.624h-9.551v-2.995h9.551V20.624z"/>
		<path d="M24.558,22.837H12.923v5.078h11.634V22.837z M23.516,26.874h-9.551v-2.995h9.551V26.874z"/>
		<path d="M24.558,29.087H12.923v5.079h11.634V29.087z M23.516,33.124h-9.551v-2.995h9.551V33.124z"/>
		<rect x="12.923" y="35.338" width="11.634" height="5.078"/>
		<rect x="12.923" y="41.588" width="11.634" height="5.078"/>
		<rect x="12.923" y="47.838" width="11.634" height="5.078"/>
		<rect x="12.923" y="54.088" width="11.634" height="5.078"/>
		<rect x="25.849" y="10.337" width="11.633" height="5.078"/>
		<path d="M37.482,4.087H25.849v5.078h11.633V4.087z M36.44,8.124h-9.549V5.129h9.549V8.124z"/>
		<rect x="25.849" y="16.587" width="11.633" height="5.078"/>
		<rect x="25.849" y="22.837" width="11.633" height="5.078"/>
		<rect x="25.849" y="29.087" width="11.633" height="5.079"/>
		<rect x="25.849" y="35.338" width="11.633" height="5.078"/>
		<rect x="25.849" y="41.588" width="11.633" height="5.078"/>
		<rect x="25.849" y="47.838" width="11.633" height="5.078"/>
		<rect x="25.849" y="54.088" width="11.633" height="5.078"/>
		<path d="M50.406,10.337H38.771v5.078h11.635V10.337z M49.364,14.374h-9.551v-2.995h9.551V14.374z"/>
		<path d="M50.406,4.087H38.771v5.078h11.635V4.087z M49.364,8.124h-9.551V5.129h9.551V8.124z"/>
		<path d="M50.406,16.587H38.771v5.078h11.635V16.587z M49.364,20.624h-9.551v-2.995h9.551V20.624z"/>
		<path d="M50.406,22.837H38.771v5.078h11.635V22.837z M49.364,26.874h-9.551v-2.995h9.551V26.874z"/>
		<rect x="38.771" y="29.087" width="11.635" height="5.079"/>
		<rect x="38.771" y="35.338" width="11.635" height="5.078"/>
		<rect x="38.771" y="41.588" width="11.635" height="5.078"/>
		<rect x="38.771" y="47.838" width="11.635" height="5.078"/>
		<rect x="38.771" y="54.088" width="11.635" height="5.078"/>
		<path d="M63.253,10.337H51.62v5.078h11.634V10.337z M62.212,14.374h-9.552v-2.995h9.552V14.374z"/>
		<path d="M63.253,4.087H51.62v5.078h11.634V4.087z M62.212,8.124h-9.552V5.129h9.552V8.124z"/>
		<path d="M63.253,16.587H51.62v5.078h11.634V16.587z M62.212,20.624h-9.552v-2.995h9.552V20.624z"/>
		<path d="M63.253,22.837H51.62v5.078h11.634V22.837z M62.212,26.874h-9.552v-2.995h9.552V26.874z"/>
		<path d="M63.253,29.087H51.62v5.079h11.634V29.087z M62.212,33.124h-9.552v-2.995h9.552V33.124z"/>
		<path d="M63.253,35.338H51.62v5.078h11.634V35.338z M62.212,39.374h-9.552v-2.995h9.552V39.374z"/>
		<rect x="51.62" y="41.588" width="11.634" height="5.078"/>
		<rect x="51.62" y="47.838" width="11.634" height="5.078"/>
		<rect x="51.62" y="54.088" width="11.634" height="5.078"/>
	</g>
</g>
<g>
</g>
<g>
</g>
<g>
</g>
<g>
</g>
<g>
</g>
<g>
</g>
<g>
</g>
<g>
</g>
<g>
</g>
<g>
</g>
<g>
</g>
<g>
</g>
<g>
</g>
<g>
</g>
<g>
</g>
</svg>
